<svg id="Capa_1" data-name="Capa 1" xmlns="http://www.w3.org/2000/svg" viewBox="0 0 246.15 64.16"><polygon points="7.94 24.17 36.87 24.17 36.87 30.18 13.8 30.18 13.84 50.5 36.87 50.69 36.87 56.66 7.75 56.66 7.94 24.17" fill="#9dd2c4" stroke="#1d1d1b" stroke-miterlimit="10"/><polygon points="0.5 18.76 32.25 0.58 49.47 10.54 49.47 5.58 55.32 5.66 55.32 13.84 63.54 18.53 63.54 25.31 55.25 20.55 55.44 56.95 49.31 56.95 49.31 42.76 30.2 42.76 30.2 49.24 24.19 49.27 24.31 31.87 30.16 31.91 30.12 36.98 49.35 37.02 49.43 17.21 32.18 7.36 0.5 25.59 0.5 18.76" fill="#9dd2c4" stroke="#1d1d1b" stroke-miterlimit="10"/><rect x="27.34" y="18.15" width="4.13" height="4.1" fill="#9dd2c4" stroke="#1d1d1b" stroke-miterlimit="10"/><rect x="32.58" y="12.79" width="4.13" height="4.1" fill="#9dd2c4" stroke="#1d1d1b" stroke-miterlimit="10"/><rect x="32.58" y="18.15" width="4.13" height="4.1" fill="#9dd2c4" stroke="#1d1d1b" stroke-miterlimit="10"/><rect x="27.34" y="12.79" width="4.13" height="4.1" fill="#9dd2c4" stroke="#1d1d1b" stroke-miterlimit="10"/><text transform="translate(62.39 56.95)" font-size="33.04" fill="#00b2bf" font-family="BerlinSansFB-Reg, Berlin Sans FB" letter-spacing="-0.01em" style="isolation:isolate">Aberturas CH</text><text transform="translate(62.39 56.95)" font-size="33.04" fill="none" stroke="#000" stroke-miterlimit="10" font-family="BerlinSansFB-Reg, Berlin Sans FB" letter-spacing="-0.01em" style="isolation:isolate">Aberturas CH</text></svg>